<?xml version="1.0" encoding="UTF-8"?>
<!DOCTYPE svg PUBLIC "-//W3C//DTD SVG 1.0//EN" "http://www.w3.org/TR/2001/REC-SVG-20010904/DTD/svg10.dtd">
<!-- Creator: CorelDRAW 2021 (64-Bit) -->
<svg xmlns="http://www.w3.org/2000/svg" xml:space="preserve" width="267.27mm" height="69.3478mm" version="1.0" shape-rendering="geometricPrecision" text-rendering="geometricPrecision" image-rendering="optimizeQuality" fill-rule="evenodd" clip-rule="evenodd"
viewBox="0 0 6953.06 1804.09"
 xmlns:xlink="http://www.w3.org/1999/xlink"
 xmlns:xodm="http://www.corel.com/coreldraw/odm/2003">
 <g id="Capa_x0020_1">
  <metadata id="CorelCorpID_0Corel-Layer"/>
  <path fill="#4a7a4a" d="M382.36 1577.54c25.85,-148.3 47.08,-298.82 71.29,-450.39 34.21,-214.15 78.15,-105.82 374.7,-144.95 149.17,-19.68 290.28,-82.56 362.2,-163.12 131.63,-147.44 121.24,-238.68 159.97,-356.58 13.31,-211.3 -21.25,-339.62 -217.5,-417.89 -148.63,-59.28 -411.29,-40.52 -588.41,-40.42 -200.66,0.12 -304.34,-34.08 -324.4,90.64 -25.43,158.14 -234.07,1416 -219.48,1454.27 18.27,28.07 -11.78,10.07 26.06,24.39l355.57 4.04z"/>
  <path fill="none" stroke="#4a7a4a" stroke-width="55.07" stroke-miterlimit="22.9256" d="M382.36 1577.54c-8.16,49.52 -29.83,131.05 -16.65,178.38 42.89,26.65 248.82,21.91 318.28,16.17 58.66,-4.85 66.46,-26.67 76.24,-90.51 16.98,-110.77 36.21,-366.8 92.9,-391.59 33,-14.43 214.47,-12.94 288.1,-35.15 371.48,-112.05 412.49,-583.44 297.18,-727.6 -23.68,-29.61 -52.14,-58.77 -87.87,-64.72 -38.74,117.91 -28.35,209.14 -159.97,356.58 -71.92,80.55 -213.03,143.44 -362.2,163.12 -296.54,39.13 -340.49,-69.21 -374.7,144.95 -24.21,151.57 -45.44,302.08 -71.29,450.39z"/>
  <path fill="#4a7a4a" d="M5122.94 855.8c37.67,-288.55 20.16,-289.29 143.75,-283.61 47.55,2.19 84.81,3.38 115.59,33.3 51.5,50.08 27.87,155.57 -14.47,201.35 -56.69,61.29 -152.22,42.83 -244.86,48.96zm-337.47 548.55c8.23,5.07 229.35,41.64 250.54,-18.86l29.81 -174.5c9.51,-71.37 1.07,-142.23 79.98,-146.61 182.75,-10.15 240.16,15.36 384.77,-76.35 136.22,-86.39 205.53,-351.78 134.17,-489.03l-47.84 -63.8c-23.53,-18.14 -45.33,-31.11 -76.02,-43.57 -109.09,-44.27 -303.2,-29.43 -431.64,-29.43 -191.31,-0 -169.99,-35.2 -212.02,249.86 -20.01,135.71 -41.56,261.75 -62.54,395.44 -10.98,69.96 -67.08,357.66 -49.21,396.85z"/>
  <path fill="#4a7a4a" d="M2409.87 854.58c5.54,-47.9 29.72,-259 50.58,-274.62 14.63,-10.95 8.52,-6.33 31.68,-8.72 272.44,-28.14 220.13,179.16 155.84,241.65 -52.02,50.58 -154.89,41.68 -238.1,41.68zm-32.05 220.32c65.26,-17.65 135.41,-7.94 208.48,-13 68.85,-4.77 97.88,-6.91 170.72,-39.33 72.46,-32.25 72.42,-47.91 119.45,-91.63 90.16,-83.79 154.98,-357.38 46.08,-472.73 -38.04,-40.29 -63.84,-59.74 -130.76,-78.6 -102.36,-28.85 -293.44,-15.56 -408.28,-17.38 -208.75,-3.3 -154.4,-28.11 -222.51,395.86 -18.37,114.33 -37.57,236.82 -55.97,354.71 -9.13,58.5 -18.87,115.35 -27.55,174.54 -10.45,71.34 -42.75,128.25 39.87,128.25 299.74,0 164.3,16.97 260.46,-340.7z"/>
  <path fill="#4a7a4a" d="M6053.59 899.29c2.45,-0.55 5.08,-2.67 6.78,-3.28l14.46 -5.42c198.11,-47.44 257.22,286.17 15.84,345.05 -204.83,49.97 -258.49,-157.22 -151.21,-279.14 45.94,-52.2 48.46,-42.45 114.13,-57.21zm134.06 497.88c17.22,13.81 18.84,17.8 50.71,19.62 19.51,1.11 43.94,0.02 63.97,-0.04 36,-0.1 91.83,4.31 114.5,-19.41 21.69,-22.69 39.83,-176.93 45.68,-219.98 11.78,-86.76 74.63,-410.9 62.61,-457.23 -51.61,-14.21 -173.93,-16.94 -225.35,0 -16.06,24.82 -14.3,25.01 -18.36,64.24 -27.14,-15.73 -35.55,-42.6 -78.85,-62.01 -105.04,-47.09 -266.93,-26.2 -357.29,30.19 -101.51,63.34 -206.28,198.22 -206.28,373.95 0,377.66 446.69,357.46 539.38,206.44 14.3,20 11.73,-19.65 11.3,36.02 -0.05,6.24 -3.97,5.54 -2.02,28.22z"/>
  <path fill="#4a7a4a" d="M3344.51 891.35c251.09,-46.85 247.9,308.66 22.3,346.26 -59.2,9.86 -119.31,-2.84 -152.48,-32.97 -71.05,-64.53 -62.25,-255.63 98.59,-304.72 14.91,-4.55 15.49,-5.56 31.58,-8.56zm362.44 512.34c18.86,-47.27 114.15,-626.62 104.82,-677.59 -38.54,-18.61 -101.86,-12.34 -152.85,-12.7 -82.67,-0.59 -80.25,-7.46 -93.4,71.63 -57.04,-49.84 -74.54,-75.5 -173.85,-85.58 -364.54,-37.01 -538.79,345.98 -439.09,564.67 9.58,21.02 41.78,74.47 51.6,85.88l52.43 40.57c182.81,103.02 315.17,8.79 421.28,-55.26 -3.99,38.65 -8.72,32.22 -0.62,66.5 41.95,28.25 191.33,13.31 229.68,1.88z"/>
  <path fill="#4a7a4a" d="M3919.58 1647.34c26.68,14.18 211.52,35.47 251.72,-8.43l410.3 -589.42c7.33,-10.93 14.12,-23.16 21.93,-34.11 37.72,-52.82 62.93,-86.56 98.55,-139.92 18.38,-27.54 29.5,-44.8 48.24,-71.35 40.58,-57.46 35.25,-33.16 34.86,-72.27 -41.54,-30.77 -146.17,-22.86 -208.35,-17.71 -45.78,3.8 -47.22,22.31 -65.62,52l-220.01 323.15c-14.41,15.33 -1.28,2.55 -20.55,15.35 -6.05,-70.38 -61.62,-214.55 -84.85,-302.45 -10.39,-39.33 -25.84,-68.09 -37.9,-83 -46.36,-7.62 -184.73,-12.02 -226.05,0 -31.02,22.89 41.61,190.62 61.11,248.67 27.66,82.36 56.32,163.31 84.16,246.76 54.96,164.72 53.69,108.44 -24.98,230.77 -46.01,71.54 -126.79,149.35 -122.55,201.96z"/>
  <path fill="#4a7a4a" d="M6559.28 1392.63c0,38.72 123.94,23.04 165.34,23.72 19.84,0.33 50.6,5.61 68.44,-28.96l120.77 -739.67c38.8,-274.99 119.85,-308.72 -189.35,-282.97 -24.37,68.97 -30.45,174.09 -45.71,257.76l-119.49 770.12z"/>
 </g>
</svg>
