<?xml version="1.0" encoding="UTF-8"?>
<!DOCTYPE svg PUBLIC "-//W3C//DTD SVG 1.0//EN" "http://www.w3.org/TR/2001/REC-SVG-20010904/DTD/svg10.dtd">
<!-- Creator: CorelDRAW 2021 (64-Bit) -->
<svg xmlns="http://www.w3.org/2000/svg" xml:space="preserve" width="146.626mm" height="63.364mm" version="1.0" shape-rendering="geometricPrecision" text-rendering="geometricPrecision" image-rendering="optimizeQuality" fill-rule="evenodd" clip-rule="evenodd"
viewBox="0 0 1883.08 813.77"
 xmlns:xlink="http://www.w3.org/1999/xlink"
 xmlns:xodm="http://www.corel.com/coreldraw/odm/2003">
 <g id="Capa_x0020_1">
  <metadata id="CorelCorpID_0Corel-Layer"/>
  <path fill="#4a7a4a" d="M183.32 112.76c-5.03,0.53 -120.03,-1 -129.14,-1.09 -4.51,-0.04 -12.86,-0.13 -19.47,-0.19 -4.5,-0.04 -20.46,-0.69 -23.64,0.08l0 113.71c4.76,1.14 28.36,0.27 35.04,0.27l107.09 0c47.55,0 95.3,-0.46 142.82,0.03 -0.51,1.71 -11.43,15.19 -13.4,17.72l-278.57 357.07c-1.36,1.77 -4.06,4.18 -4.06,6.85l0.12 95.04 183.19 -0 0 111.36c6.97,-0.07 106.53,0.56 110.04,-0.3l0 -111.06 186.83 0c0.46,-2.23 1.21,-4.51 1.08,-6.78 0,-13.18 -9.1,-20.56 -14.56,-27.43 -8.37,-10.52 -10.35,-12.48 -18.3,-24.32 -10.29,-15.32 -18.53,-31.27 -25.47,-48.42 -0.88,-2.19 -2.05,-6.09 -3.98,-6.84 -3.54,-0.67 -172.32,-1.59 -188.41,-1.64 -11.66,-0.03 -54.45,0.12 -59.36,-1.05 1.57,-2.01 3.36,-4.47 5.03,-6.59 36.87,-46.83 73.44,-95.22 110.29,-142.08l136.68 -176.18c14.14,-18.16 27.92,-35.95 42.07,-54.13 2.87,-3.69 2.64,-2.98 2.62,-9.11l0 -84.62c-6.37,-0.68 -154.93,-0.17 -174.61,-0.16l0.09 -112.39c-4,-0.96 -21.7,-0.27 -27.11,-0.27 -9.25,0 -18.51,0 -27.76,0 -18.25,0 -36.98,0.42 -55.17,-0.03l0 112.55zm1364.24 296c1.17,-10.53 7.79,-25.94 13.08,-35.23l7.54 -10.8 13.14 -13.63c0.81,-0.67 0.88,-0.85 1.57,-1.42 39.42,-32.56 103.23,-33.93 143.64,-1.38 8.77,7.06 14.66,15.01 20.4,25.21 7.23,12.86 13.69,22.51 13.06,37.29l-212.43 -0.03zm-128.55 56.66c0,63.84 15.03,115.53 52.5,163.18 11.6,14.74 26.84,28.27 42.2,39.12 11.02,7.78 23.93,14.97 37.89,21.1 27.33,12.01 62.71,20.95 95.97,20.95 51.58,0 86.84,-1.27 133.7,-22.89 19.08,-8.81 35.92,-18.48 49.91,-29.43 2.03,-1.59 3.56,-2.78 5.54,-4.37l15.88 -13.87c18.77,-19.14 23.54,-21.51 -1.7,-41.46 -1.08,-0.85 -1.44,-1.4 -2.64,-2.32 -11.17,-8.59 -25.79,-23.93 -35.1,-34.31 -1.77,-1.97 -3.16,-3.43 -4.82,-5.11 -11.61,-11.78 -18.1,-9.44 -31.35,2.62 -31.32,28.51 -64.7,39.33 -110.08,39.33 -62.73,0 -104.87,-23.4 -119.34,-82.15 -0.84,-3.4 -2.19,-7.88 -2.66,-11.09 15.14,0.49 29.73,0.08 44.75,0.08l278.45 0c2.1,0 3.56,-0.03 5.65,0.01 2.79,0.06 3.61,-0.2 5.04,-3.03 4.26,-8.46 4.29,-27.53 4.29,-38.34 0,-32.99 -5.28,-75.16 -16.78,-102.22 -7.91,-18.6 -13.01,-28.23 -22.88,-44.1l-9.24 -13.02c-2.21,-2.98 -4.18,-5.35 -6.64,-8.24 -0.8,-0.94 -0.71,-1.02 -1.5,-1.96l-5.71 -6.2c-2.61,-2.51 -4.9,-4.83 -7.44,-7.43 -26.49,-27.04 -72.35,-47.58 -109.51,-54.1 -22.75,-3.99 -83.74,-4.32 -105.28,0.9 -34.83,8.45 -63.47,21.3 -91.18,42.66l-8.12 6.75c-10.19,8.49 -17.65,16.87 -25.78,26.79 -5.96,7.28 -10.3,13.68 -15.47,21.7 -24.74,38.38 -38.55,92.81 -38.55,140.44zm-205.1 -222.62l0.12 223.61c0.12,23.92 0.41,58.52 0.38,88.26 -0.03,26.87 -0.71,61.57 8.48,86.56 9.21,25.04 25.14,40.47 46.06,52.1 31.29,17.4 47.84,16.44 84.13,16.44 24.73,0 49.85,-2.8 70.74,-15.96 19.63,-12.36 2.37,-27.01 -13.82,-53.77 -2.5,-4.13 -21.75,-36.9 -22.87,-41.1 -8.76,-1.42 -25.94,0.55 -37.5,-1.64 -6.96,-1.32 -9.23,-3.69 -11.72,-9.61 -2.56,-6.1 -2.45,-11.35 -2.95,-18.36 -1.85,-25.68 -0.97,-54.13 -1.48,-80.53 -0.96,-50.39 -0.31,-110.32 -0.31,-164.2 0,-55.66 0.42,-110.68 -0.4,-163.12 -0.43,-27.87 -0.07,-53.78 -1.06,-80.82 -0.77,-20.94 2.23,-21.53 -19.64,-22.49 -15.87,-0.69 -76.11,-0.5 -91.37,1.67 -3.08,0.44 -3.65,1.13 -4.15,4.23 -0.43,2.67 -0.62,4.96 -0.76,7.66 -1.1,21.33 -0.98,41.83 -1.42,62.48 -0.84,39.11 -0.45,83.7 -0.45,108.58zm-239.64 153.21c0,57.91 -0.54,119.46 0.83,177.05 0.39,16.66 0.53,33.78 2.37,49.81 1.89,16.41 6.01,26.52 13.46,38.08 12.76,19.8 39.06,35.57 60.85,42.77 14.79,4.89 29.01,5.67 45.95,6.18 16.39,0.5 78.26,1.61 78.26,-19.39 0,-9.98 -6.36,-18.51 -9.53,-27.08 -3.45,-9.35 -6.26,-17.54 -8.98,-27.73 -1.34,-5.03 -2.52,-9.82 -3.35,-15.02 -3.78,-23.98 -7.98,-22.73 -35.09,-22.73 -16.43,0 -20.73,-0.31 -23.4,-14.97 -1.92,-10.55 -2.08,-24.89 -2.43,-36.26 -0.73,-24.05 -0.82,-47.14 -0.81,-69.91l-0.5 -299.97c0,-25.46 -0.2,-49.98 -0.7,-74.37 -0.25,-12.19 -0.23,-23.79 -1.1,-36.13 -0.48,-6.88 -4.88,-7.26 -11.37,-7.79 -16.77,-1.38 -70.55,-0.39 -90.1,0.32 -14.58,0.53 -11.99,-2.8 -13.04,27.22 -1.09,31.25 -1.15,69.66 -1.07,98.32 0.18,68.08 -0.26,141.46 -0.26,211.58zm-390.56 12.76c1.3,-11.77 7.22,-26.66 12.96,-35.85 19.58,-31.35 53.72,-50.15 93.5,-50.15 26.95,0 52.42,7.29 72.96,24.08 2.57,2.1 4.49,3.56 6.67,5.73 1.14,1.13 1.63,1.98 2.72,3.22 12.14,13.78 21.41,34.84 24.41,53.1l-213.22 -0.13zm-128.89 58.64c0,72.06 19.54,129.69 66.32,176.47 24.77,24.77 56.93,44.15 92.88,55.35 34.56,10.77 50.16,9.59 86.57,9.55 16.24,-0.01 30.54,0.24 45.97,-1.11 38.19,-3.34 92.86,-28.8 121.33,-51.16l26.38 -23.18c3.02,-3.66 9.44,-8.67 9.44,-15.7 0,-8.61 -15.59,-17.98 -21.42,-23.54l-5.25 -4.66c-1.13,-0.94 -1.69,-1.38 -2.68,-2.3l-20.05 -20.09c-4.34,-4.67 -15.59,-16.46 -21.38,-18.8 -6.49,-2.62 -19.4,9.48 -24.73,14.36 -10.3,9.43 -23.54,17.44 -37.3,23.2 -42.84,17.94 -117.52,17.73 -152.85,-11.58 -10.58,-8.78 -16.16,-16.38 -23.64,-30.37 -5.13,-9.59 -13.01,-27.81 -13.35,-40.62 93.41,-0.95 189.87,0.27 283.13,-0.79 12.78,-0.15 29.1,-0.08 42.78,-1.14 4.91,-0.38 5.47,-1.21 7.23,-4.74 4.86,-9.79 4.87,-28.67 4.87,-39.57 0,-30.26 -7.3,-67.92 -17.06,-94.36 -10.67,-28.91 -25.52,-52.48 -42.24,-70.78 -38.45,-42.07 -97.44,-68.72 -154.73,-68.72 -16.74,0 -34.18,-0.34 -51.51,0.62 -7.58,0.42 -17.08,3.29 -24.53,5.01 -30.66,7.08 -56.97,19.07 -81.17,37.3l-10.28 8.06c-6.4,5.09 -17.68,15.95 -22.69,21.93l-3.25 3.69c-0.62,0.76 -1.14,1.16 -1.91,2.09 -6.84,8.24 -12.83,16.77 -18.67,25.93 -7.74,12.14 -13.6,25.33 -19.24,40.25 -11.73,31.03 -16.97,63.98 -16.97,99.39z"/>
 </g>
</svg>
