<?xml version="1.0" encoding="UTF-8"?>
<!DOCTYPE svg PUBLIC "-//W3C//DTD SVG 1.0//EN" "http://www.w3.org/TR/2001/REC-SVG-20010904/DTD/svg10.dtd">
<!-- Creator: CorelDRAW 2021 (64-Bit) -->
<svg xmlns="http://www.w3.org/2000/svg" xml:space="preserve" width="71.0286mm" height="69.2865mm" version="1.0" shape-rendering="geometricPrecision" text-rendering="geometricPrecision" image-rendering="optimizeQuality" fill-rule="evenodd" clip-rule="evenodd"
viewBox="0 0 3663.77 3573.91"
 xmlns:xlink="http://www.w3.org/1999/xlink"
 xmlns:xodm="http://www.corel.com/coreldraw/odm/2003">
 <g id="Capa_x0020_1">
  <metadata id="CorelCorpID_0Corel-Layer"/>
  <g id="_1516502563728">
   <path fill="#4A7A4A" d="M1649.71 337.56l33.05 35.76c1.99,2.38 2.24,3.12 4.58,5.43 3.43,3.38 5.84,6.49 9.11,9.99l9.11 10.91c30.78,34.55 61.13,74.09 86.64,112.61 15.79,23.85 31.44,47.56 46.11,72.16l11.17 18.86c14.19,24.74 49.77,91.68 57.88,111.35l12.52 26.6c6.83,13.45 12.07,26.92 18.49,40.65 19.42,41.52 35.16,84.56 51.9,127.34l21.08 58.08c24.19,72.86 45.94,138.1 66.35,212.98 20.23,74.23 37.74,148.94 52.88,224.62 11.28,56.42 20.33,113.06 28.33,170.02 4.8,34.2 14.56,110.51 16.35,142.87 0.29,5.2 1.48,12.14 1.76,17.34 0.33,5.95 0.92,13.28 1.6,18.42l7.53 111.65c0.62,11.52 -0.2,26.88 1.43,37.69 0.94,6.24 0.34,13.2 0.35,19.66 0.01,6.41 0.94,11.49 0.94,19.08 -0.01,14.21 0.91,25.11 0.91,39.12 0,24.24 -2.13,52.62 3.11,76.05 7.3,32.71 25.69,50.62 44.46,75.64 40.58,54.06 74.39,112.51 103.78,173.72 13.26,27.63 24.01,56.45 33.69,85.5 13.84,41.52 23.91,83.71 32.49,126.73 4.37,21.92 6.78,46.42 9.68,69.48 1.95,15.52 2.16,30.87 2.98,46.16 0.22,4.05 0.89,4.36 0.95,9.06 0.08,6.63 -0.01,13.42 -0.05,20.07 -0.04,7.16 0.91,11.37 0.93,19.1 0.02,7.54 -0.95,11.38 -0.92,19.1 0.02,6.36 0.35,13.79 0.01,20.02 -0.22,4.05 -0.89,4.36 -0.95,9.06 -0.04,3.19 0.25,6.87 -0.01,10 -7.67,92.68 -19.16,164.19 -45.12,252.4 -17.15,58.27 -42.03,114.31 -70.69,167.7 -29.35,54.7 -66.32,104.75 -107.28,151.12 -1.84,2.08 -2.03,2.88 -4.08,5.01l-9.56 10.46c-11.2,12.12 -23.43,23.28 -35.03,35.02l-20.92 19.12c-11.83,11.5 -42.17,35.07 -54.7,44.47 -15.49,11.62 -30.48,22.22 -46.9,33.17 -12.01,8.01 -23.69,15.8 -36.31,22.83 -4.46,2.49 -8.59,4.83 -12.46,7.56 -7.9,5.59 -14.9,12.68 -11.45,25.99 6.23,24.05 31.28,16.77 60.58,16.77l597.17 0c43.88,0 87.75,0 131.63,0 45.04,0 87.35,-0.92 131.93,-0.91 11.42,0 19.99,-0.91 31.84,-0.91 11.22,0 22.44,0 33.67,0 11.85,0 20.43,-0.91 31.85,-0.91l131.93 -0.91c12.12,0 21.31,-0.91 32.75,-0.91 131.84,0.08 263.58,-1.67 395.83,-0.04 5.53,0.07 8.82,0.97 15.43,0.95 14.12,-0.05 34.37,0.27 47.85,2.19 8.9,1.26 19.91,3.52 30.18,2.15 8.21,-1.1 19.05,-4.92 22.1,-11.57 5.06,-11.04 2.69,-46.12 2.69,-62.83l0 -464.94c0,-22.3 0.88,-41.74 0.91,-63.56l0 -1.04 0 -199.25 0 -4.14 0 -262.93c-0.64,-16.83 -9.54,-34.55 -29.08,-35.04 -23.91,-0.61 -27.47,12.56 -30.06,36.43 -1.05,9.63 -2.57,18.8 -4.03,28.72 -1.52,10.31 -2.86,19 -4.54,29.12 -1.62,9.68 -3.12,19.07 -4.83,27.92l-11.34 55.08c-14.99,64.03 -29.21,117.42 -53.11,179.81 -3.21,8.38 -5.8,15.41 -9.1,23.66l-30.1 69.07c-11.95,23.7 -20.93,42.5 -33.68,65.49 -4.13,7.44 -8.3,13.9 -12.4,21.27l-25.38 41.04c-22.79,34.18 -68.42,97.35 -96.48,127.34l-51.87 55.5c-11.37,11.36 -17.3,17.81 -29.11,28.21l-21.61 20.24c-3.35,2.56 -5.04,4.82 -8.72,7.66l-26.97 23.07c-29.04,25.32 -63.68,49.42 -96.98,69.52 -76.28,46.06 -199.76,96.1 -287.81,110.71 -19.06,3.16 -37.55,6.56 -57.15,9.27 -19.12,2.65 -38.49,5.53 -58.12,8.29l-58.09 8.04c-5.16,0 -12.02,0.54 -17.2,1.29 -13.12,1.92 -37.62,1.37 -50.53,-1.2 -36.05,-7.15 -41.89,-33.62 -45.56,-63.63 -3.43,-28.1 -7.63,-76.24 -4.51,-104.02 0.92,-8.2 0.13,-284.47 0.13,-291.93 0,-97.36 0,-194.71 0,-292.07 0,-98.09 -0.91,-193.44 -0.91,-291.15l0 -1461.23c0,-98.04 0.91,-193.2 0.91,-291.15l0.91 -108.28c0,-22.17 1.93,-49.66 1.81,-70.98l4.55 -68.23c0.47,-10.93 2.33,-23.49 3.48,-33.82 11.71,-105.44 33.68,-187.85 70.61,-276.04 1.92,-4.58 3.74,-8.13 5.6,-12.6 2.06,-4.96 3.91,-8.04 5.83,-12.36 5.8,-13.05 14.67,-28.45 18.21,-36.39 13.82,-31.06 0.59,-33.34 -25.61,-36.26l-73.6 -0.17c-5.79,0.07 -10.21,0.95 -17.25,0.94l-419.45 0c-7.14,0.02 -11.11,-0.93 -17.25,-0.94l-54.64 0.04c-6.94,0.04 -10.11,-0.96 -17.27,-0.93l-36.4 0.01c-7.37,0.01 -11.89,-0.93 -18.17,-0.94 -25.03,-0.04 -47.5,-0.88 -71.91,-0.88l-53.68 -0.91c-7.37,0.01 -11.89,-0.93 -18.16,-0.94 -48.65,-0.07 -95.17,-2.7 -143.44,-2.7l-25.82 -0.91c-4.18,0 -8.63,0.15 -12.77,0.03 -4.84,-0.14 -6.84,-0.99 -12.69,-0.95l-102.82 -2.72c-4.25,0.02 -8.5,-0.01 -12.75,0.01 -5.78,0.03 -8.21,-0.68 -12.73,-0.92 -8.88,-0.47 -18.27,0.93 -26.92,-0.38 -8.08,-1.22 -17.36,-0.24 -25.89,-0.5l-25.45 -0.93c-8.71,0.04 -15.81,-0.92 -25.47,-0.92 -14.52,0.01 -36.9,-1.87 -50.95,-1.82l-90.11 -2.69c-5.26,-0.06 -6.86,-0.99 -12.68,-0.96 -4.26,0.02 -8.51,0.01 -12.77,0.03 -5.78,0.03 -8.21,-0.68 -12.73,-0.92 -8.32,-0.45 -17.96,0.05 -26.43,0.03 -4.96,-0.01 -6.35,-0.75 -10.41,-0.94l-94.19 0 -0.47 0 -0.46 0c-9.49,0.05 -15.86,0.92 -25.46,0.91 -34.81,-0.02 -113.74,7.31 -146.22,12.1l-34.58 5.45c-1.33,0.22 -3.24,0.5 -5.49,0.88l-4.37 1.05c-0.17,0.06 -0.48,0.21 -0.62,0.26 -0.13,0.05 -0.42,0.15 -0.6,0.28 -13.91,0 -78.47,14.9 -92,18.19 -44.71,10.87 -86.95,22.07 -129.54,36.96 -33.94,11.86 -66.17,25.37 -99.21,39.09 -22.46,9.33 -43.79,21.21 -65.43,31.92 -28.52,14.12 -60.2,34.04 -86.64,51.66 -25,16.67 -49.04,34.55 -72.4,53.15 -2.69,2.14 -4.75,3.93 -7.44,6.21l-10.91 9.1c-1.74,1.48 -2.23,1.63 -4.04,3.24 -12.44,11.07 -25.05,21.4 -36.86,33.2l-40.85 41.03c-2.55,3.2 -3.54,4.27 -6.47,7.18l-16.01 18.57c-1.28,1.6 -2.14,2.18 -3.5,3.78 -2.21,2.59 -3.8,5.01 -6.01,7.63l-18.44 23.42c-26.05,34.76 -49.89,71.9 -69.25,110.9 -20.68,41.67 -38.02,86.48 -49.25,131.82 -24.42,98.66 -30.15,199.3 -16.04,301.38 5.7,41.21 12.32,77.5 22.04,115.35 12.18,47.41 31.39,97.14 53.57,141.14l24.25 44.9c1.86,3.33 3.11,5.5 5,8.64 26.06,43.16 54.24,83.6 85.91,122.45l19.11 22.74c1.52,1.71 1.36,1.9 2.79,3.58l12.73 14.56c9.4,11.22 20.57,21.44 30.03,32.75 2.18,2.62 4.78,4.86 7.24,7.32 9.58,9.58 38.67,40.16 48.26,48.18l21.8 20.05c13.71,13.91 29.34,25.81 43.67,39.12 1.72,1.6 1.93,1.53 3.54,2.83l41.48 34.94c26.35,23.52 78.47,60.85 110.07,84.65 18.42,13.88 37.98,26.18 56.42,40.02 3.06,2.3 5.46,3.8 8.63,5.92l166.68 110.82c11.42,7.61 22.15,14.47 33.48,22.02 11.31,7.54 22.42,14.49 33.46,22.02l282.08 184.7c18.74,12.5 37.69,24.83 56.41,37.3 35.61,23.74 76.34,50.45 111.52,75.91l105.41 81.11c13.18,10.36 37.94,32.81 49.87,43.84 2.33,2.16 3.57,2.63 5.94,4.97 2.18,2.17 3.71,3.74 5.9,5.94 4.3,4.31 7.98,7.06 12.28,11.37l40.5 41.39c2.55,2.54 3.15,3.93 5.44,6.39l53.47 62.99 56.92 83.2 17.3 30.02c3.17,5.29 5.01,10.48 8.4,15.08 1.73,5.41 6.26,13.11 8.96,18.5 41.45,82.76 62.16,167.84 72.04,260.96 1.39,13.12 4.04,70 2.34,81.23 -0.65,4.27 -1.12,42.89 -2.59,52.91 -1.21,8.21 -1.67,16.77 -2.43,24.87 -5.62,59.45 -26.56,150.57 -46.2,204.92 -17.57,48.6 -47.41,102.52 -82.7,140.22l-27.29 28.22c-20.8,20.83 -62.96,50.86 -88.49,63.46 -8.9,4.38 -17.37,9.4 -27.94,13.92 -47.89,20.45 -97.63,37.74 -150.54,45.08 -32.88,4.56 -66.22,8.34 -103.57,8.34 -74.27,0 -141.14,-7.44 -201.02,-21.83 -153.55,-34.69 -307.41,-108.72 -428.72,-205.51l-47.58 -39.77c-2.24,-1.74 -2.43,-1.8 -4.4,-3.79l-49.13 -46.41c-5.61,-5.6 -9.82,-10.73 -15.46,-16.38l-59.43 -67.95c-4.91,-6.25 -9.44,-11.66 -14.04,-17.81l-26.76 -36.02c-18.96,-27.47 -32.73,-48.67 -50.07,-77.32 -4.21,-6.96 -7.47,-13.36 -11.61,-20.24 -10.45,-17.39 -23.77,-44.44 -32.88,-62.65l-20.49 -43.19c-3.09,-7.63 -6.47,-14.28 -9.75,-22.1l-27.3 -68.23c-29.67,-76.87 -52.36,-172.09 -65.77,-251.77 -3.14,-18.67 -5.1,-36.38 -7.8,-55.89 -2.26,-16.37 -5.36,-34.84 -27.79,-35.9 -10.64,-0.5 -20.61,1 -25.73,6.15 -5.75,5.78 -6.14,14.32 -6.13,25.71 0.2,339.07 0,678.15 0,1017.22 0,54.35 -4.57,55.62 54.62,55.53 5.95,-0.01 8.77,-0.98 15.43,-0.95 116.47,0.6 232.84,-0.9 349.39,-0.9 11.51,0 20.15,0.92 30.93,0.91 20.93,-0.03 41.86,0 62.78,0 23.93,0 53.57,1.93 77.35,1.81 6.66,-0.03 9.48,0.94 15.43,0.95 11.57,0.02 19.78,0.84 31,0.85l149.11 10.11c9.36,0.73 19.26,2.14 29.16,2.69 3.83,0.21 10.54,1.1 13.94,1.53l57.89 5.8c12.48,1.04 32.47,4.47 43.81,4.47 17.48,1.5 35.8,4.68 53.62,5.45 8.09,0.35 19.21,1.5 26.63,2.49l27.94 2.08c6.04,0.05 7.97,0.92 13.65,0.9 6.08,-0.02 7.9,0.95 13.63,0.93 6.13,-0.03 8.67,0.76 13.64,0.91 5.85,0.18 10.09,-0.02 14.83,0.63 6.83,0.94 46.4,1.13 57.15,1.16l0.51 0 0.46 0 0.41 0 0.36 0 0.95 0 0.94 0 0.94 0c19.16,-0.03 36.89,-0.33 55.42,-0.88 5,-0.15 7.48,-0.98 13.63,-0.92 6.06,0.06 7.84,-0.97 13.61,-0.95 9.32,0.04 19.49,-1.36 28.23,-1.8 88.02,-4.39 172.41,-18.54 256.94,-39.67 16.54,-4.14 31.32,-8.82 46.95,-13.11 15,-4.11 30.31,-9.65 44.7,-14.44 28.98,-9.66 57.28,-21.22 85.16,-33.13 44.38,-18.96 86.06,-42.06 127.94,-64.95l18.51 -10.6c40.61,-22.59 79.69,-48.96 115.95,-77.85 66.91,-53.31 122.46,-117.05 166.56,-190.11 11.28,-18.69 21.62,-37.47 31.08,-57.18 16.58,-34.54 31.36,-70.27 41.93,-107.29 15.5,-54.28 23.03,-87.79 31.3,-146.12 1.32,-9.3 2,-17.21 3.04,-26.98l2.6 -27.43c0.43,-17.67 3.85,-69.42 1.55,-86.21 -1.46,-10.7 -1.34,-38.18 -3.78,-55.37 -3.71,-26.21 -6.39,-53.06 -11.51,-78.56 -6.38,-31.7 -13.93,-63.43 -24.15,-94.14 -9.61,-28.9 -19.92,-58.9 -33.11,-86.08 -3.17,-6.53 -5.9,-13.55 -9.09,-20.03 -16.04,-32.57 -32.91,-65.06 -53.14,-95.16 -4.25,-6.32 -7.6,-11.85 -11.83,-18.19 -4.26,-6.39 -8.03,-11.61 -12.18,-17.84 -2.14,-3.21 -3.78,-5.17 -6.01,-8.55 -10.85,-16.45 -25.34,-35.04 -37.73,-50.53l-74.09 -89.69c-8.46,-10.12 -30.68,-31.64 -35.86,-37.84 -2.92,-3.5 -4.1,-4.93 -7.32,-8.14 -2.63,-2.63 -4.58,-4.72 -7.26,-7.3l-30.48 -28.66c-19.58,-19.38 -67.53,-57.17 -89.87,-73.91l-104.99 -73.34c-3.27,-2.18 -5.75,-3.5 -8.92,-5.63l-17.66 -11.46c-13.96,-9.35 -73.58,-48.19 -82.41,-52.41l-51.08 -32.47c-32.73,-19.35 -69.76,-44.41 -103.14,-64.27l-51.79 -31.92c-4.46,-2.93 -8.49,-5.19 -12.93,-8 -2.22,-1.4 -3.91,-2.35 -6.26,-3.74l-84.62 -51.87c-8.99,-5.32 -17,-10.54 -25.93,-15.92 -8.92,-5.38 -16.9,-10.54 -25.92,-15.93l-130.1 -80.08c-25.65,-15.26 -51.77,-32.78 -77.25,-48.31l-50.61 -33.1c-45.42,-30.28 -79.55,-55.02 -122.14,-87.13l-69.68 -56.81c-2.01,-3.08 -23.7,-22.22 -27.92,-25.74l-27.33 -26.34c-20.11,-20.11 -42.15,-44 -60.56,-65.91l-50.01 -64.63c-9.47,-12.61 -23.95,-35.64 -31.99,-48.99 -27.09,-45.05 -49.99,-92.85 -67.96,-146.77 -15.34,-46.01 -28.71,-105.72 -32.57,-155.77 -0.38,-4.88 -0.97,-8.29 -1,-12.64 -0.04,-5.82 -0.77,-7.94 -0.91,-12.74 -0.52,-17.46 -0.88,-34.34 -0.88,-52.8 0,-27.31 4.25,-74.13 7.92,-99.45 14.36,-99.26 50.24,-186.59 112.81,-263.87l37.81 -42.25c2.5,-2.5 4.34,-4.32 6.82,-6.83 8.82,-8.91 39.73,-35.04 51,-42.71 35.62,-24.23 42.67,-29.67 84.89,-50.77l24.59 -10.8c8.87,-3.64 17.42,-6.79 26.38,-10.02 32.49,-11.68 79.01,-23.68 114.26,-29.49 20.52,-3.38 60.29,-9 81.25,-8.83 6.93,0.05 10.1,-0.96 17.27,-0.93l53.16 1.44c4.73,0.71 12.42,1.11 16.9,1.31 25.12,1.07 68.64,10.63 91.1,17.17 19.21,5.6 36.41,12.11 53.71,19.07 23.51,9.47 39.6,19.26 59.91,29.25 3.9,1.92 7.81,4.23 11.65,6.55 4.03,2.42 7.37,4.23 11.49,6.71l32.91 20.78c45.67,30.44 91.82,66.09 132.98,102.67 13.47,11.97 35.12,30.47 47.31,42.77 6.02,6.07 32.21,33.61 36.97,36.17z"/>
  </g>
 </g>
</svg>
